<svg width="24" height="24" viewBox="0 0 24 24" fill="none" xmlns="http://www.w3.org/2000/svg">
<mask id="mask0_503_1509" style="mask-type:alpha" maskUnits="userSpaceOnUse" x="0" y="0" width="24" height="24">
<rect width="24" height="24" fill="white"/>
</mask>
<g mask="url(#mask0_503_1509)">
<path d="M9 20C8.68333 20 8.38333 19.9292 8.1 19.7875C7.81667 19.6458 7.58333 19.45 7.4 19.2L2.9 13.2C2.63333 12.85 2.5 12.45 2.5 12C2.5 11.55 2.63333 11.15 2.9 10.8L7.4 4.8C7.58333 4.55 7.81667 4.35417 8.1 4.2125C8.38333 4.07083 8.68333 4 9 4H20C20.55 4 21.0208 4.19583 21.4125 4.5875C21.8042 4.97917 22 5.45 22 6V18C22 18.55 21.8042 19.0208 21.4125 19.4125C21.0208 19.8042 20.55 20 20 20H9ZM10 13C10.2833 13 10.5208 12.9042 10.7125 12.7125C10.9042 12.5208 11 12.2833 11 12C11 11.7167 10.9042 11.4792 10.7125 11.2875C10.5208 11.0958 10.2833 11 10 11C9.71667 11 9.47917 11.0958 9.2875 11.2875C9.09583 11.4792 9 11.7167 9 12C9 12.2833 9.09583 12.5208 9.2875 12.7125C9.47917 12.9042 9.71667 13 10 13ZM13.5 13C13.7833 13 14.0208 12.9042 14.2125 12.7125C14.4042 12.5208 14.5 12.2833 14.5 12C14.5 11.7167 14.4042 11.4792 14.2125 11.2875C14.0208 11.0958 13.7833 11 13.5 11C13.2167 11 12.9792 11.0958 12.7875 11.2875C12.5958 11.4792 12.5 11.7167 12.5 12C12.5 12.2833 12.5958 12.5208 12.7875 12.7125C12.9792 12.9042 13.2167 13 13.5 13ZM17 13C17.2833 13 17.5208 12.9042 17.7125 12.7125C17.9042 12.5208 18 12.2833 18 12C18 11.7167 17.9042 11.4792 17.7125 11.2875C17.5208 11.0958 17.2833 11 17 11C16.7167 11 16.4792 11.0958 16.2875 11.2875C16.0958 11.4792 16 11.7167 16 12C16 12.2833 16.0958 12.5208 16.2875 12.7125C16.4792 12.9042 16.7167 13 17 13Z" fill="#1E272E"/>
</g>
</svg>
