<svg width="101" height="14" viewBox="0 0 101 14" fill="none" xmlns="http://www.w3.org/2000/svg">
  <path
    d="M92.9127 8.06364L90.8407 10.1916V13.533H88.4141V0.466309H90.8407V7.16764L97.2994 0.466309H100.025L94.5367 6.30898L100.361 13.533H97.5234L92.9127 8.06364Z"
    fill="white" />
  <path
    d="M80.5263 13.7198C79.2071 13.7198 78.0125 13.4336 76.9423 12.8611C75.8845 12.2762 75.0507 11.4736 74.4409 10.4531C73.8436 9.43267 73.5449 8.28156 73.5449 6.99979C73.5449 5.71801 73.8498 4.5669 74.4596 3.54645C75.0694 2.52601 75.9031 1.72956 76.9609 1.15712C78.0311 0.57223 79.2258 0.279785 80.5449 0.279785C81.6151 0.279785 82.592 0.466452 83.4756 0.839786C84.3591 1.21312 85.1058 1.75445 85.7156 2.46378L84.1476 3.93845C83.2018 2.91801 82.0383 2.40779 80.6569 2.40779C79.7609 2.40779 78.9583 2.6069 78.2489 3.00512C77.5396 3.3909 76.9858 3.93223 76.5876 4.62912C76.1894 5.32601 75.9903 6.11623 75.9903 6.99979C75.9903 7.88334 76.1894 8.67356 76.5876 9.37045C76.9858 10.0673 77.5396 10.6149 78.2489 11.0131C78.9583 11.3989 79.7609 11.5918 80.6569 11.5918C82.0383 11.5918 83.2018 11.0753 84.1476 10.0425L85.7156 11.5358C85.1058 12.2451 84.3529 12.7865 83.4569 13.1598C82.5734 13.5331 81.5965 13.7198 80.5263 13.7198Z"
    fill="white" />
  <path
    d="M64.4953 13.7198C63.1638 13.7198 61.9629 13.4336 60.8927 12.8611C59.8225 12.2762 58.9824 11.4736 58.3727 10.4531C57.7629 9.42023 57.458 8.26912 57.458 6.99979C57.458 5.73045 57.7629 4.58556 58.3727 3.56512C58.9824 2.53223 59.8225 1.72956 60.8927 1.15712C61.9629 0.57223 63.1638 0.279785 64.4953 0.279785C65.8269 0.279785 67.0278 0.57223 68.098 1.15712C69.1682 1.72956 70.0082 2.52601 70.618 3.54645C71.2278 4.5669 71.5327 5.71801 71.5327 6.99979C71.5327 8.28156 71.2278 9.43267 70.618 10.4531C70.0082 11.4736 69.1682 12.2762 68.098 12.8611C67.0278 13.4336 65.8269 13.7198 64.4953 13.7198ZM64.4953 11.5918C65.3665 11.5918 66.1505 11.3989 66.8473 11.0131C67.5442 10.6149 68.0918 10.0673 68.49 9.37045C68.8882 8.66112 69.0873 7.8709 69.0873 6.99979C69.0873 6.12867 68.8882 5.34467 68.49 4.64779C68.0918 3.93845 67.5442 3.3909 66.8473 3.00512C66.1505 2.6069 65.3665 2.40779 64.4953 2.40779C63.6242 2.40779 62.8402 2.6069 62.1433 3.00512C61.4465 3.3909 60.8989 3.93845 60.5007 4.64779C60.1024 5.34467 59.9033 6.12867 59.9033 6.99979C59.9033 7.8709 60.1024 8.66112 60.5007 9.37045C60.8989 10.0673 61.4465 10.6149 62.1433 11.0131C62.8402 11.3989 63.6242 11.5918 64.4953 11.5918Z"
    fill="white" />
  <path d="M47.0801 0.466309H49.5067V11.4796H56.3387V13.533H47.0801V0.466309Z" fill="white" />
  <path
    d="M37.0979 13.7198C35.7663 13.7198 34.5654 13.4336 33.4952 12.8611C32.425 12.2762 31.585 11.4736 30.9752 10.4531C30.3654 9.42023 30.0605 8.26912 30.0605 6.99979C30.0605 5.73045 30.3654 4.58556 30.9752 3.56512C31.585 2.53223 32.425 1.72956 33.4952 1.15712C34.5654 0.57223 35.7663 0.279785 37.0979 0.279785C38.4294 0.279785 39.6303 0.57223 40.7005 1.15712C41.7708 1.72956 42.6108 2.52601 43.2206 3.54645C43.8303 4.5669 44.1352 5.71801 44.1352 6.99979C44.1352 8.28156 43.8303 9.43267 43.2206 10.4531C42.6108 11.4736 41.7708 12.2762 40.7005 12.8611C39.6303 13.4336 38.4294 13.7198 37.0979 13.7198ZM37.0979 11.5918C37.969 11.5918 38.753 11.3989 39.4499 11.0131C40.1468 10.6149 40.6943 10.0673 41.0926 9.37045C41.4908 8.66112 41.6899 7.8709 41.6899 6.99979C41.6899 6.12867 41.4908 5.34467 41.0926 4.64779C40.6943 3.93845 40.1468 3.3909 39.4499 3.00512C38.753 2.6069 37.969 2.40779 37.0979 2.40779C36.2268 2.40779 35.4428 2.6069 34.7459 3.00512C34.049 3.3909 33.5014 3.93845 33.1032 4.64779C32.705 5.34467 32.5059 6.12867 32.5059 6.99979C32.5059 7.8709 32.705 8.66112 33.1032 9.37045C33.5014 10.0673 34.049 10.6149 34.7459 11.0131C35.4428 11.3989 36.2268 11.5918 37.0979 11.5918Z"
    fill="white" />
  <path
    d="M21.011 13.7198C19.6794 13.7198 18.4785 13.4336 17.4083 12.8611C16.3381 12.2762 15.4981 11.4736 14.8883 10.4531C14.2785 9.42023 13.9736 8.26912 13.9736 6.99979C13.9736 5.73045 14.2785 4.58556 14.8883 3.56512C15.4981 2.53223 16.3381 1.72956 17.4083 1.15712C18.4785 0.57223 19.6794 0.279785 21.011 0.279785C22.3425 0.279785 23.5434 0.57223 24.6136 1.15712C25.6839 1.72956 26.5239 2.52601 27.1336 3.54645C27.7434 4.5669 28.0483 5.71801 28.0483 6.99979C28.0483 8.28156 27.7434 9.43267 27.1336 10.4531C26.5239 11.4736 25.6839 12.2762 24.6136 12.8611C23.5434 13.4336 22.3425 13.7198 21.011 13.7198ZM21.011 11.5918C21.8821 11.5918 22.6661 11.3989 23.363 11.0131C24.0599 10.6149 24.6074 10.0673 25.0056 9.37045C25.4039 8.66112 25.603 7.8709 25.603 6.99979C25.603 6.12867 25.4039 5.34467 25.0056 4.64779C24.6074 3.93845 24.0599 3.3909 23.363 3.00512C22.6661 2.6069 21.8821 2.40779 21.011 2.40779C20.1399 2.40779 19.3559 2.6069 18.659 3.00512C17.9621 3.3909 17.4145 3.93845 17.0163 4.64779C16.6181 5.34467 16.419 6.12867 16.419 6.99979C16.419 7.8709 16.6181 8.66112 17.0163 9.37045C17.4145 10.0673 17.9621 10.6149 18.659 11.0131C19.3559 11.3989 20.1399 11.5918 21.011 11.5918Z"
    fill="white" />
  <path
    d="M9.59167 6.73831C10.3135 6.97475 10.8859 7.37298 11.309 7.93298C11.7321 8.48053 11.9437 9.16498 11.9437 9.98631C11.9437 11.1188 11.5081 11.9961 10.637 12.6183C9.7659 13.2281 8.49656 13.533 6.82901 13.533H0.333008V0.466309H6.45568C7.99879 0.466309 9.18723 0.771198 10.021 1.38098C10.8548 1.97831 11.2717 2.80586 11.2717 3.86364C11.2717 4.51075 11.1223 5.0832 10.8237 5.58098C10.525 6.07875 10.1143 6.46453 9.59167 6.73831ZM2.75967 2.37031V5.97298H6.19434C7.04056 5.97298 7.68767 5.82364 8.13567 5.52498C8.59612 5.21386 8.82634 4.76586 8.82634 4.18097C8.82634 3.58364 8.59612 3.13564 8.13567 2.83698C7.68767 2.52586 7.04056 2.37031 6.19434 2.37031H2.75967ZM6.67968 11.629C8.55879 11.629 9.49834 11.0005 9.49834 9.74364C9.49834 8.48675 8.55879 7.85831 6.67968 7.85831H2.75967V11.629H6.67968Z"
    fill="white" />
</svg>
  